<svg width="237" height="264" viewBox="0 0 237 264" fill="none" xmlns="http://www.w3.org/2000/svg">
<path d="M166.028 138.771L165.486 282.653L8.67286 283.198C3.78941 291.918 -21.1703 340.423 -24.9685 343.693V138.771H-58.6101C-55.3545 132.231 -0.0088501 91.9005 5.4172 87.5405C16.8119 78.8204 26.5788 71.1904 37.9735 62.4703C45.57 56.4752 61.8482 42.3049 69.9873 38.4899C76.4986 41.2149 169.284 114.246 183.934 126.236C188.818 130.051 195.329 134.411 199.127 138.771H166.028ZM202.383 175.832C239.823 168.201 241.993 136.046 231.683 119.696C225.715 109.886 214.863 103.891 207.266 97.3507L101.458 14.5096C72.7003 -6.7456 62.9334 -3.4756 36.8884 16.6896L-42.332 77.7304C-53.7267 86.4505 -86.8255 109.886 -92.7941 120.786C-102.561 139.316 -96.5924 170.381 -61.3231 175.286C-61.3231 198.177 -62.951 345.329 -59.6954 356.229C-53.1841 378.029 -23.8835 392.744 -2.72187 375.304C10.8432 364.404 20.6102 335.518 31.4623 319.168C57.5074 318.623 84.095 319.168 109.597 319.168C129.131 319.168 169.827 322.438 183.934 314.263C205.096 301.728 202.383 282.653 202.383 253.223C202.383 228.697 200.755 199.267 202.383 175.832Z" fill="url(#paint0_linear_957_1016)" fill-opacity="0.08"/>
<defs>
<linearGradient id="paint0_linear_957_1016" x1="-46.2531" y1="52.7642" x2="199.335" y2="317.628" gradientUnits="userSpaceOnUse">
<stop stop-color="#F57921"/>
<stop offset="1" stop-color="#FCAD1C"/>
</linearGradient>
</defs>
</svg>
