<svg width="20" height="20" viewBox="0 0 20 20" fill="none" xmlns="http://www.w3.org/2000/svg">
<path d="M10 20C15.514 20 20 15.514 20 10C20 4.486 15.514 0 10 0C4.486 0 0 4.486 0 10C0 15.514 4.486 20 10 20ZM10 1.81818C14.5115 1.81818 18.1818 5.48855 18.1818 10C18.1818 14.5115 14.5115 18.1818 10 18.1818C5.48855 18.1818 1.81818 14.5115 1.81818 10C1.81818 5.48855 5.48855 1.81818 10 1.81818Z" fill="#D9726B"/>
<path d="M9.99991 12.7271C10.5019 12.7271 10.909 12.32 10.909 11.818V4.54532C10.909 4.04323 10.5019 3.63623 9.99991 3.63623C9.49782 3.63623 9.09082 4.04323 9.09082 4.54532V11.818C9.09082 12.32 9.49782 12.7271 9.99991 12.7271Z" fill="#D9726B"/>
<path d="M10.6425 16.0972C10.996 15.744 10.9985 15.1677 10.6425 14.8118C10.4735 14.6427 10.239 14.5454 9.99991 14.5454C9.49891 14.5454 9.09082 14.9535 9.09082 15.4545C9.09082 15.6936 9.18809 15.9281 9.35718 16.0971C9.71055 16.4507 10.2868 16.4532 10.6425 16.0972Z" fill="#D9726B"/>
</svg>
